<svg width="24" height="22" viewBox="0 0 24 22" fill="none" xmlns="http://www.w3.org/2000/svg">
<path d="M5.37214 22H0.396429V7.31173H5.37214V22ZM2.88161 5.30811C1.29054 5.30811 0 4.10005 0 2.64153C1.13882e-08 1.94095 0.303597 1.26907 0.844003 0.773687C1.38441 0.278303 2.11736 0 2.88161 0C3.64586 0 4.3788 0.278303 4.91921 0.773687C5.45962 1.26907 5.76321 1.94095 5.76321 2.64153C5.76321 4.10005 4.47214 5.30811 2.88161 5.30811ZM23.9946 22H19.0296V14.8498C19.0296 13.1458 18.9921 10.9605 16.4427 10.9605C13.8557 10.9605 13.4593 12.8118 13.4593 14.7271V22H8.48893V7.31173H13.2611V9.31534H13.3307C13.995 8.1613 15.6177 6.94341 18.0386 6.94341C23.0743 6.94341 24 9.98321 24 13.9315V22H23.9946Z" fill="white"/>
</svg>
